<svg width="20" height="20" viewBox="0 0 20 20" fill="none" xmlns="http://www.w3.org/2000/svg">
<path d="M18.6592 4.98037C17.765 3.44835 16.552 2.23536 15.0199 1.34115C13.4875 0.446989 11.8148 0 10.0003 0C8.18604 0 6.51277 0.446989 4.98071 1.34115C3.44855 2.23522 2.23555 3.44822 1.34129 4.98037C0.446991 6.51261 0 8.18586 0 10C0 11.8142 0.447128 13.4872 1.34116 15.0195C2.23537 16.5516 3.44837 17.7646 4.98053 18.6589C6.51277 19.553 8.1859 20 10.0001 20C11.8144 20 13.4877 19.553 15.0198 18.6589C16.5519 17.7649 17.7649 16.5516 18.659 15.0195C19.5531 13.4873 20 11.8141 20 10C20 8.18568 19.5531 6.51238 18.6592 4.98037ZM16.133 13.5546C15.4993 14.6396 14.64 15.499 13.555 16.1329C12.47 16.7666 11.2851 17.0831 10.0002 17.0831C8.71558 17.0831 7.53062 16.7666 6.44546 16.1329C5.36043 15.499 4.50111 14.6396 3.86745 13.5546C3.23365 12.4696 2.91687 11.2847 2.91687 10C2.91687 8.71522 3.23379 7.53032 3.86745 6.44529C4.50097 5.36027 5.36052 4.50077 6.44546 3.86716C7.53049 3.23345 8.7154 2.91672 10.0002 2.91672C11.2851 2.91672 12.47 3.23345 13.555 3.86716C14.64 4.50081 15.4994 5.36027 16.133 6.44529C16.7667 7.53032 17.0834 8.71522 17.0834 10C17.0834 11.2847 16.7667 12.4696 16.133 13.5546Z" fill="#28C8C6"/>
<path d="M14.1669 10H11.667V5.41637C11.667 5.29478 11.6277 5.19504 11.5497 5.11687C11.472 5.03893 11.372 4.99976 11.2506 4.99976H8.75034C8.62884 4.99976 8.52896 5.03893 8.45084 5.11687C8.37267 5.19509 8.33363 5.29478 8.33363 5.41637V9.99982H5.83351C5.6426 9.99982 5.51235 10.0867 5.44285 10.2602C5.37334 10.4253 5.4039 10.577 5.53401 10.7161L9.70078 14.8827C9.79637 14.9608 9.89611 14.9998 10.0003 14.9998C10.1043 14.9998 10.2042 14.9608 10.2999 14.8827L14.4536 10.7292C14.5403 10.6251 14.5836 10.5205 14.5836 10.4167C14.5836 10.2953 14.5446 10.1954 14.4663 10.1171C14.3883 10.039 14.2884 10 14.1669 10Z" fill="#28C8C6"/>
</svg>
