<svg width="40" height="20" viewBox="0 0 40 20" fill="none" xmlns="http://www.w3.org/2000/svg">
<rect width="40" height="20" fill="white"/>
<g clip-path="url(#clip0)">
<path d="M12.1457 4.61316C11.7388 4.20629 11.7388 3.56574 12.1457 3.15886C12.5526 2.76574 13.1931 2.76574 13.6 3.15886L19.6948 9.25279C19.8836 9.44157 20 9.70365 20 9.99415C20 10.2846 19.8836 10.5467 19.6948 10.7364L13.6 16.8303C13.1931 17.2372 12.5526 17.2372 12.1457 16.8303C11.7388 16.4235 11.7388 15.7829 12.1457 15.376L16.5095 11.0269H1.0181C0.450859 11.0278 0 10.5623 0 9.99506C0 9.42782 0.450859 8.97696 1.0181 8.97696H16.5086L12.1457 4.61316Z" fill="#28C8C6"/>
</g>
<defs>
<clipPath id="clip0">
<rect width="20" height="20" fill="white"/>
</clipPath>
</defs>
</svg>
