<svg width="40" height="20" viewBox="0 0 40 20" fill="none" xmlns="http://www.w3.org/2000/svg">
<rect width="40" height="20" fill="white"/>
<g clip-path="url(#clip0)">
<path d="M18.6592 4.98038C17.7649 3.44836 16.5519 2.23536 15.0198 1.34115C13.4875 0.44699 11.8148 0 10.0003 0C8.18602 0 6.51276 0.44699 4.9807 1.34115C3.44854 2.23523 2.23554 3.44822 1.34129 4.98038C0.44699 6.51262 0 8.18588 0 10C0 11.8143 0.447127 13.4872 1.34115 15.0196C2.23536 16.5516 3.44836 17.7646 4.98051 18.6589C6.51276 19.553 8.18588 20 10.0001 20C11.8143 20 13.4877 19.553 15.0198 18.6589C16.5519 17.7649 17.7648 16.5516 18.659 15.0196C19.553 13.4874 20 11.8142 20 10C20 8.1857 19.553 6.51239 18.6592 4.98038ZM16.133 13.5546C15.4993 14.6397 14.64 15.499 13.555 16.133C12.4699 16.7666 11.2851 17.0831 10.0002 17.0831C8.71556 17.0831 7.53061 16.7666 6.44544 16.133C5.36042 15.499 4.5011 14.6397 3.86744 13.5546C3.23365 12.4696 2.91686 11.2847 2.91686 10C2.91686 8.71524 3.23378 7.53033 3.86744 6.44531C4.50096 5.36028 5.36051 4.50078 6.44544 3.86717C7.53047 3.23346 8.71538 2.91672 10.0002 2.91672C11.285 2.91672 12.4699 3.23346 13.555 3.86717C14.64 4.50082 15.4994 5.36028 16.133 6.44531C16.7667 7.53033 17.0833 8.71524 17.0833 10C17.0833 11.2847 16.7667 12.4696 16.133 13.5546Z" fill="#28C8C6"/>
<path d="M14.167 10H11.6671V5.41637C11.6671 5.29479 11.6278 5.19504 11.5498 5.11687C11.4721 5.03893 11.3721 4.99976 11.2507 4.99976H8.75045C8.62895 4.99976 8.52908 5.03893 8.45095 5.11687C8.37278 5.19509 8.33374 5.29479 8.33374 5.41637V9.99984H5.83364C5.64273 9.99984 5.51247 10.0867 5.44297 10.2602C5.37346 10.4253 5.40402 10.577 5.53414 10.7161L9.70089 14.8828C9.79648 14.9608 9.89623 14.9998 10.0004 14.9998C10.1044 14.9998 10.2043 14.9608 10.3 14.8828L14.4537 10.7292C14.5404 10.6251 14.5837 10.5205 14.5837 10.4167C14.5837 10.2953 14.5447 10.1954 14.4664 10.1171C14.3884 10.039 14.2886 10 14.167 10Z" fill="#28C8C6"/>
</g>
<defs>
<clipPath id="clip0">
<rect width="20" height="20" fill="white"/>
</clipPath>
</defs>
</svg>
